<mxfile host="app.diagrams.net" modified="2023-12-06T11:47:29.400Z" agent="Mozilla/5.0 (Windows NT 10.0; Win64; x64; rv:120.0) Gecko/20100101 Firefox/120.0" version="21.7.4" etag="bSsIa_mL0hDP92tm1LdF" type="github">
  <diagram name="第 1 页" id="KIerRdBQE2Am2AazFrH8">
    <mxGraphModel>
      <root>
        <mxCell id="0" />
        <mxCell id="1" parent="0" />
      </root>
    </mxGraphModel>
  </diagram>
</mxfile>
